<svg xmlns="http://www.w3.org/2000/svg" width="880" height="450" viewBox="0 0 880 450" role="img" aria-label="Committed transfers per second, scenario U against scenario H"><title>Committed transfers per second, scenario U against scenario H</title><rect width="880" height="450" fill="#fcfcfb"/><text x="24.0" y="30.0" font-family="system-ui, -apple-system, 'Segoe UI', Roboto, 'Helvetica Neue', Arial, sans-serif" font-size="15" fill="#0b0b0b" text-anchor="start" font-weight="600">Transfers committed per second</text><text x="24.0" y="48.0" font-family="system-ui, -apple-system, 'Segoe UI', Roboto, 'Helvetica Neue', Arial, sans-serif" font-size="11" fill="#52514e" text-anchor="start" font-weight="400">READ COMMITTED with ordered locking, two minutes per step</text><line x1="64.0" y1="384.0" x2="824.0" y2="384.0" stroke="#e6e5e1" stroke-width="1"/><text x="56.0" y="388.0" font-family="system-ui, -apple-system, 'Segoe UI', Roboto, 'Helvetica Neue', Arial, sans-serif" font-size="11" fill="#52514e" text-anchor="end" font-weight="400">0</text><line x1="64.0" y1="324.0" x2="824.0" y2="324.0" stroke="#e6e5e1" stroke-width="1"/><text x="56.0" y="328.0" font-family="system-ui, -apple-system, 'Segoe UI', Roboto, 'Helvetica Neue', Arial, sans-serif" font-size="11" fill="#52514e" text-anchor="end" font-weight="400">100</text><line x1="64.0" y1="264.0" x2="824.0" y2="264.0" stroke="#e6e5e1" stroke-width="1"/><text x="56.0" y="268.0" font-family="system-ui, -apple-system, 'Segoe UI', Roboto, 'Helvetica Neue', Arial, sans-serif" font-size="11" fill="#52514e" text-anchor="end" font-weight="400">200</text><line x1="64.0" y1="204.0" x2="824.0" y2="204.0" stroke="#e6e5e1" stroke-width="1"/><text x="56.0" y="208.0" font-family="system-ui, -apple-system, 'Segoe UI', Roboto, 'Helvetica Neue', Arial, sans-serif" font-size="11" fill="#52514e" text-anchor="end" font-weight="400">300</text><line x1="64.0" y1="144.0" x2="824.0" y2="144.0" stroke="#e6e5e1" stroke-width="1"/><text x="56.0" y="148.0" font-family="system-ui, -apple-system, 'Segoe UI', Roboto, 'Helvetica Neue', Arial, sans-serif" font-size="11" fill="#52514e" text-anchor="end" font-weight="400">400</text><line x1="64.0" y1="84.0" x2="824.0" y2="84.0" stroke="#e6e5e1" stroke-width="1"/><text x="56.0" y="88.0" font-family="system-ui, -apple-system, 'Segoe UI', Roboto, 'Helvetica Neue', Arial, sans-serif" font-size="11" fill="#52514e" text-anchor="end" font-weight="400">500</text><text x="140.0" y="402.0" font-family="system-ui, -apple-system, 'Segoe UI', Roboto, 'Helvetica Neue', Arial, sans-serif" font-size="11" fill="#52514e" text-anchor="middle" font-weight="400">10 VU</text><text x="292.0" y="402.0" font-family="system-ui, -apple-system, 'Segoe UI', Roboto, 'Helvetica Neue', Arial, sans-serif" font-size="11" fill="#52514e" text-anchor="middle" font-weight="400">50 VU</text><text x="444.0" y="402.0" font-family="system-ui, -apple-system, 'Segoe UI', Roboto, 'Helvetica Neue', Arial, sans-serif" font-size="11" fill="#52514e" text-anchor="middle" font-weight="400">100 VU</text><text x="596.0" y="402.0" font-family="system-ui, -apple-system, 'Segoe UI', Roboto, 'Helvetica Neue', Arial, sans-serif" font-size="11" fill="#52514e" text-anchor="middle" font-weight="400">200 VU</text><text x="748.0" y="402.0" font-family="system-ui, -apple-system, 'Segoe UI', Roboto, 'Helvetica Neue', Arial, sans-serif" font-size="11" fill="#52514e" text-anchor="middle" font-weight="400">400 VU</text><text x="56.0" y="72.0" font-family="system-ui, -apple-system, 'Segoe UI', Roboto, 'Helvetica Neue', Arial, sans-serif" font-size="11" fill="#52514e" text-anchor="end" font-weight="400">tx/s</text><path d="M94.0 384.0 V178.9 q0 -4.0 4.0 -4.0 h16.0 q4.0 0 4.0 4.0 V384.0 Z" fill="#2a78d6"><title>Scenario U at 10 VU: 349</title></path><path d="M162.0 384.0 V348.6 q0 -4.0 4.0 -4.0 h16.0 q4.0 0 4.0 4.0 V384.0 Z" fill="#eb6834"><title>Scenario H at 10 VU: 66</title></path><path d="M246.0 384.0 V165.5 q0 -4.0 4.0 -4.0 h16.0 q4.0 0 4.0 4.0 V384.0 Z" fill="#2a78d6"><title>Scenario U at 50 VU: 371</title></path><path d="M314.0 384.0 V347.3 q0 -4.0 4.0 -4.0 h16.0 q4.0 0 4.0 4.0 V384.0 Z" fill="#eb6834"><title>Scenario H at 50 VU: 68</title></path><path d="M398.0 384.0 V164.9 q0 -4.0 4.0 -4.0 h16.0 q4.0 0 4.0 4.0 V384.0 Z" fill="#2a78d6"><title>Scenario U at 100 VU: 372</title></path><path d="M466.0 384.0 V346.9 q0 -4.0 4.0 -4.0 h16.0 q4.0 0 4.0 4.0 V384.0 Z" fill="#eb6834"><title>Scenario H at 100 VU: 69</title></path><path d="M550.0 384.0 V163.4 q0 -4.0 4.0 -4.0 h16.0 q4.0 0 4.0 4.0 V384.0 Z" fill="#2a78d6"><title>Scenario U at 200 VU: 374</title></path><path d="M618.0 384.0 V346.8 q0 -4.0 4.0 -4.0 h16.0 q4.0 0 4.0 4.0 V384.0 Z" fill="#eb6834"><title>Scenario H at 200 VU: 69</title></path><text x="630.0" y="336.8" font-family="system-ui, -apple-system, 'Segoe UI', Roboto, 'Helvetica Neue', Arial, sans-serif" font-size="10" fill="#52514e" text-anchor="middle" font-weight="400">69</text><path d="M702.0 384.0 V163.4 q0 -4.0 4.0 -4.0 h16.0 q4.0 0 4.0 4.0 V384.0 Z" fill="#2a78d6"><title>Scenario U at 400 VU: 374</title></path><text x="714.0" y="153.4" font-family="system-ui, -apple-system, 'Segoe UI', Roboto, 'Helvetica Neue', Arial, sans-serif" font-size="10" fill="#52514e" text-anchor="middle" font-weight="400">374</text><path d="M770.0 384.0 V346.9 q0 -4.0 4.0 -4.0 h16.0 q4.0 0 4.0 4.0 V384.0 Z" fill="#eb6834"><title>Scenario H at 400 VU: 68</title></path><text x="782.0" y="336.9" font-family="system-ui, -apple-system, 'Segoe UI', Roboto, 'Helvetica Neue', Arial, sans-serif" font-size="10" fill="#52514e" text-anchor="middle" font-weight="400">68</text><rect x="64.0" y="420.0" width="10" height="10" rx="2" fill="#2a78d6"/><text x="80.0" y="429.0" font-family="system-ui, -apple-system, 'Segoe UI', Roboto, 'Helvetica Neue', Arial, sans-serif" font-size="11" fill="#52514e" text-anchor="start" font-weight="400">Scenario U - random pairs</text><rect x="251.0" y="420.0" width="10" height="10" rx="2" fill="#eb6834"/><text x="267.0" y="429.0" font-family="system-ui, -apple-system, 'Segoe UI', Roboto, 'Helvetica Neue', Arial, sans-serif" font-size="11" fill="#52514e" text-anchor="start" font-weight="400">Scenario H - one shared REVENUE account</text></svg>